<svg xmlns="http://www.w3.org/2000/svg" width="1175" height="579" viewBox="0 0 1175 579" role="img" aria-labelledby="title desc">
  <title id="title">Blog 2 Facebook post screenshot</title>
  <desc id="desc">A Facebook group content screen showing a pending post by Phan Tuan Danh about using Amazon CloudFront instead of serving video directly from Amazon S3, with an attached streaming architecture diagram.</desc>
  <defs>
    <style>
      .ui{font-family:Arial,Helvetica,sans-serif;fill:#050505}
      .muted{fill:#65676b}
      .bold{font-weight:700}
      .panel{fill:#fff}
      .bg{fill:#f0f2f5}
      .selected{fill:#e7f3ff}
      .bucket{fill:#d83a35;stroke:#fff;stroke-width:1.5}
      .button{fill:#e4e6eb}
      .flow{fill:none;stroke:#159bd7;stroke-width:3;marker-end:url(#arrow)}
      .dash{fill:none;stroke:#8ecf91;stroke-width:3;stroke-dasharray:4 4;marker-end:url(#arrow)}
      .label{font-family:Arial,Helvetica,sans-serif;font-size:11px;fill:#111;text-anchor:middle}
      .tiny{font-size:8px}
      .icon{fill:none;stroke:#fff;stroke-width:2;stroke-linecap:round;stroke-linejoin:round}
    </style>
    <marker id="arrow" markerWidth="10" markerHeight="10" refX="8" refY="5" orient="auto">
      <path d="M1 1 L9 5 L1 9" fill="none" stroke="#159bd7" stroke-width="2" stroke-linecap="round" stroke-linejoin="round"/>
    </marker>
  </defs>
  <rect class="bg" width="1175" height="579"/>
  <rect class="panel" x="0" y="18" width="340" height="550"/>

  <text class="ui muted" x="0" y="51" font-size="13">AWS Study Group VN › Nội dung của bạn</text>
  <text class="ui bold" x="0" y="77" font-size="24">Nội dung của bạn</text>
  <text class="ui muted" x="0" y="104" font-size="16">Quản lý và xem bài viết của bạn trong nhóm này.</text>
  <text class="ui muted" x="0" y="125" font-size="16">Quản trị viên và người kiểm duyệt có thể đóng</text>
  <text class="ui muted" x="0" y="146" font-size="16">góp ý kiến.</text>

  <rect class="selected" x="0" y="165" width="331" height="59" rx="8"/>
  <circle cx="17" cy="195" r="20" fill="#1877f2"/>
  <rect x="7" y="185" width="20" height="20" rx="2" fill="#fff"/>
  <path d="M12 191h10M12 196h10M12 201h7" stroke="#1877f2" stroke-width="2" stroke-linecap="round"/>
  <text class="ui bold" x="43" y="191" font-size="16">Đang chờ</text>
  <circle cx="47" cy="207" r="4" fill="#1877f2"/>
  <text class="ui muted" x="59" y="211" font-size="13">2 bài viết</text>

  <circle cx="15" cy="250" r="17" fill="#e4e6eb"/>
  <rect x="6" y="242" width="18" height="16" rx="3" fill="#242526"/>
  <circle cx="15" cy="250" r="4" fill="#e4e6eb"/>
  <text class="ui bold" x="43" y="248" font-size="16">Đã đăng</text>
  <circle cx="47" cy="268" r="4" fill="#1877f2"/>
  <text class="ui muted" x="59" y="272" font-size="13">1 bài viết</text>

  <circle cx="15" cy="307" r="17" fill="#e4e6eb"/>
  <rect x="6" y="299" width="18" height="16" rx="3" fill="#242526"/>
  <path d="M10 303l9 8M19 303l-9 8" stroke="#fff" stroke-width="2" stroke-linecap="round"/>
  <text class="ui bold" x="43" y="306" font-size="16">Đã từ chối kèm theo ý kiến đóng góp</text>

  <circle cx="15" cy="361" r="17" fill="#e4e6eb"/>
  <path d="M7 355h17M10 355l2 18h7l2-18M12 351h7" stroke="#242526" stroke-width="3" stroke-linecap="round"/>
  <text class="ui bold" x="43" y="360" font-size="16">Đã gỡ kèm theo ý kiến đóng góp</text>

  <g transform="translate(562 51)">
    <rect class="panel" width="500" height="555" rx="12" stroke="#d8dadf"/>
    <circle cx="31" cy="31" r="20" fill="#d9e9f7"/>
    <circle cx="25" cy="25" r="8" fill="#87b45b"/>
    <circle cx="38" cy="37" r="12" fill="#537fb9"/>
    <text class="ui bold" x="60" y="26" font-size="15">Phan Tuấn Danh ▸ AWS Study Group VN</text>
    <text class="ui muted" x="60" y="47" font-size="13">19 tháng 7 lúc 19:28 · 🌐</text>
    <text class="ui muted" x="461" y="28" font-size="24">...</text>

    <text class="ui bold" x="10" y="76" font-size="16">Chia sẻ một kinh nghiệm nhỏ khi xây dựng website xem phim trên</text>
    <text class="ui bold" x="10" y="98" font-size="16">AWS</text>
    <text class="ui" x="10" y="128" font-size="16">Xin chào mọi người,</text>
    <text class="ui" x="10" y="157" font-size="16">Trong quá trình phát triển dự án <tspan class="bold">Netflop</tspan>, nhóm mình từng đặt câu hỏi:</text>
    <text class="ui" x="10" y="187" font-size="16">Tại sao không phát video trực tiếp từ Amazon S3 mà lại phải dùng</text>
    <text class="ui" x="10" y="209" font-size="16">thêm Amazon CloudFront?</text>
    <text class="ui" x="10" y="238" font-size="16">Sau khi tìm hiểu và triển khai thực tế, nhóm nhận thấy CloudFront</text>
    <text class="ui" x="10" y="260" font-size="16">mang lại rất nhiều lợi ích.</text>
    <text class="ui bold" x="10" y="291" font-size="16">Xem thêm</text>

    <rect x="0" y="323" width="500" height="232" fill="#fff" stroke="#d8dadf"/>
    <g transform="translate(3 344) scale(.51)">
      <rect width="966" height="432" fill="#fff"/>
      <rect x="7" y="18" width="800" height="370" rx="32" fill="none" stroke="#222" stroke-width="3"/>
      <rect x="3" y="0" width="462" height="432" fill="none" stroke="#f20b22" stroke-width="3"/>
      <g transform="translate(38 12)">
        <path d="M19 43c-20 0-24-31-3-36C22-7 45-1 49 14c13-2 25 8 25 22 0 14-11 24-25 24H19z" fill="#ff8b3d"/>
        <text x="36" y="42" text-anchor="middle" font-family="Arial,Helvetica,sans-serif" font-size="19" font-weight="700" fill="#fff">AWS</text>
      </g>
      <g transform="translate(24 57)">
        <rect width="69" height="78" rx="5" fill="#159f92" stroke="#222" stroke-width="3"/>
        <path d="M24 22v35l28-18z" fill="#fff"/>
        <path d="M7 8v62M62 8v62" stroke="#222" stroke-width="4" stroke-dasharray="5 5"/>
        <text class="label" x="35" y="104">Movie File</text>
      </g>
      <path class="dash" d="M58 140v100"/>
      <g transform="translate(20 243)">
        <path class="bucket" d="M0 10c0-13 78-13 78 0v57c0 13-78 13-78 0z"/>
        <ellipse cx="39" cy="10" rx="39" ry="12" fill="#ef534d" stroke="#fff" stroke-width="2"/>
        <circle cx="22" cy="52" r="6" fill="#fff"/>
        <circle cx="56" cy="52" r="6" fill="#fff"/>
        <path d="M33 27h14l-7 13z" fill="#fff"/>
        <text class="label" x="39" y="98">S3</text>
        <text class="label tiny" x="39" y="116">input-bucket</text>
      </g>
      <g transform="translate(169 232)">
        <rect width="97" height="97" fill="#ff8b00"/>
        <path class="icon" d="M30 36l19-11 19 11v28L49 75 30 64z"/>
        <path class="icon" d="M49 25v19l19 11M49 44L30 55"/>
        <text class="label" x="49" y="121">AWS Elemental MediaConvert</text>
      </g>
      <g transform="translate(319 121)">
        <path d="M0 0h33l12 12v65H0z" fill="#2b95cc"/>
        <path d="M33 0v12h12" fill="#1e7198"/>
        <text class="label" x="23" y="104">m3u8</text>
      </g>
      <g transform="translate(393 121)">
        <path d="M0 0h33l12 12v65H0z" fill="#f5a24b"/>
        <path d="M33 0v12h12" fill="#c77f35"/>
        <text class="label" x="23" y="104">ts</text>
      </g>
      <path d="M304 211c0 12 8 14 21 14h29c14 0 16 9 16 14 0-5 2-14 16-14h30c13 0 21-2 21-14" fill="none" stroke="#111" stroke-width="3"/>
      <g transform="translate(340 243)">
        <path class="bucket" d="M0 10c0-13 78-13 78 0v57c0 13-78 13-78 0z"/>
        <ellipse cx="39" cy="10" rx="39" ry="12" fill="#ef534d" stroke="#fff" stroke-width="2"/>
        <circle cx="22" cy="52" r="6" fill="#fff"/>
        <circle cx="56" cy="52" r="6" fill="#fff"/>
        <path d="M33 27h14l-7 13z" fill="#fff"/>
        <text class="label" x="39" y="98">S3</text>
        <text class="label tiny" x="39" y="116">output-bucket</text>
      </g>
      <g transform="translate(489 223)">
        <path d="M0 30l65-26 65 26-65 26z" fill="#f47b20"/>
        <path d="M0 71l65-26 65 26-65 26z" fill="#f47b20"/>
        <path d="M33 17v68M65 4v93M98 17v68" stroke="#cf5519" stroke-width="4"/>
        <text class="label" x="65" y="139">CloudFront</text>
      </g>
      <g transform="translate(626 110)">
        <path d="M0 0h43l14 14v70H0z" fill="#2b95cc"/>
        <path d="M43 0v14h14" fill="#1e7198"/>
        <rect x="0" y="41" width="52" height="32" fill="#333"/>
        <text x="26" y="64" text-anchor="middle" font-family="Arial,Helvetica,sans-serif" font-size="19" fill="#fff">HTML</text>
      </g>
      <g transform="translate(713 110)">
        <path d="M0 0h43l14 14v70H0z" fill="#2b95cc"/>
        <path d="M43 0v14h14" fill="#1e7198"/>
        <rect x="0" y="41" width="52" height="32" fill="#333"/>
        <text x="26" y="64" text-anchor="middle" font-family="Arial,Helvetica,sans-serif" font-size="19" fill="#fff">JS</text>
      </g>
      <path d="M623 210c0 12 8 14 21 14h35c14 0 16 9 16 14 0-5 2-14 16-14h36c13 0 21-2 21-14" fill="none" stroke="#111" stroke-width="3"/>
      <g transform="translate(662 243)">
        <path class="bucket" d="M0 10c0-13 78-13 78 0v57c0 13-78 13-78 0z"/>
        <ellipse cx="39" cy="10" rx="39" ry="12" fill="#ef534d" stroke="#fff" stroke-width="2"/>
        <circle cx="22" cy="52" r="6" fill="#fff"/>
        <circle cx="56" cy="52" r="6" fill="#fff"/>
        <path d="M33 27h14l-7 13z" fill="#fff"/>
        <text class="label" x="39" y="98">S3</text>
        <text class="label tiny" x="39" y="116">Website</text>
      </g>
      <g transform="translate(884 110)">
        <rect width="58" height="111" rx="4" fill="#111"/>
        <rect x="7" y="9" width="44" height="85" fill="#fff"/>
        <circle cx="29" cy="102" r="5" fill="#fff"/>
      </g>
      <g transform="translate(862 321)">
        <rect width="96" height="63" fill="#111"/>
        <rect x="8" y="8" width="80" height="47" fill="#fff"/>
        <path d="M48 63v24M25 87h46" stroke="#111" stroke-width="7" stroke-linecap="round"/>
      </g>
      <path class="flow" d="M98 281h67"/>
      <path class="flow" d="M266 281h70"/>
      <path class="flow" d="M418 281h75"/>
      <path class="flow" d="M619 281h39"/>
      <path class="flow" d="M740 281h70v-117h69"/>
      <path class="flow" d="M740 281h70v73h48"/>
    </g>
  </g>
</svg>
